<svg width="40" height="40" viewBox="0 0 40 40" fill="none" xmlns="http://www.w3.org/2000/svg">
<rect x="1" y="1" width="38" height="38" rx="19" stroke="#F9F9F9" stroke-width="2"/>
<path d="M10.88 30V13.744L10.56 11.152H25.376C26.8053 11.152 27.9467 11.312 28.8 11.632C29.6747 11.9307 30.3253 12.3467 30.752 12.88C31.2 13.392 31.488 14 31.616 14.704C31.7653 15.3867 31.84 16.112 31.84 16.88V19.408C31.84 20.432 31.6693 21.3813 31.328 22.256C31.008 23.1093 30.4 23.8027 29.504 24.336C28.6293 24.848 27.36 25.104 25.696 25.104H23.488C22.144 25.104 20.8853 25.072 19.712 25.008C18.56 24.944 17.696 24.8907 17.12 24.848V30H10.88ZM17.12 20.752H23.744C24.448 20.752 24.9387 20.6133 25.216 20.336C25.4933 20.0587 25.632 19.6107 25.632 18.992V17.36C25.632 16.7413 25.504 16.2933 25.248 16.016C24.992 15.7173 24.5013 15.568 23.776 15.568H17.12V20.752Z" fill="#F9F9F9"/>
</svg>
