<svg xmlns="http://www.w3.org/2000/svg" width="25" height="26" fill="none" viewBox="0 0 25 26"><rect width="23" height="23" x="1" y="1.302" stroke="#F9F9F9" stroke-width="2" rx="11.5"/><path fill="#F9F9F9" d="M6.25313 19.3025V9.14249L6.05313 7.52249H15.3131C16.2065 7.52249 16.9198 7.62249 17.4531 7.82249C17.9998 8.00916 18.4065 8.26916 18.6731 8.60249C18.9531 8.92249 19.1331 9.30249 19.2131 9.74249C19.3065 10.1692 19.3531 10.6225 19.3531 11.1025V12.6825C19.3531 13.3225 19.2465 13.9158 19.0331 14.4625C18.8331 14.9958 18.4531 15.4292 17.8931 15.7625C17.3465 16.0825 16.5531 16.2425 15.5131 16.2425H14.1331C13.2931 16.2425 12.5065 16.2225 11.7731 16.1825C11.0531 16.1425 10.5131 16.1092 10.1531 16.0825V19.3025H6.25313ZM10.1531 13.5225H14.2931C14.7331 13.5225 15.0398 13.4358 15.2131 13.2625C15.3865 13.0892 15.4731 12.8092 15.4731 12.4225V11.4025C15.4731 11.0158 15.3931 10.7358 15.2331 10.5625C15.0731 10.3758 14.7665 10.2825 14.3131 10.2825H10.1531V13.5225Z"/></svg>