<svg xmlns="http://www.w3.org/2000/svg" width="41" height="40" fill="none" viewBox="0 0 41 40"><rect width="38" height="38" x="1.5" y="1" stroke="#1E1E1E" stroke-width="2" rx="19"/><path fill="#1E1E1E" d="M11.38 30V13.744L11.06 11.152H25.876C27.3053 11.152 28.4467 11.312 29.3 11.632C30.1747 11.9307 30.8253 12.3467 31.252 12.88C31.7 13.392 31.988 14 32.116 14.704C32.2653 15.3867 32.34 16.112 32.34 16.88V19.408C32.34 20.432 32.1693 21.3813 31.828 22.256C31.508 23.1093 30.9 23.8027 30.004 24.336C29.1293 24.848 27.86 25.104 26.196 25.104H23.988C22.644 25.104 21.3853 25.072 20.212 25.008C19.06 24.944 18.196 24.8907 17.62 24.848V30H11.38ZM17.62 20.752H24.244C24.948 20.752 25.4387 20.6133 25.716 20.336C25.9933 20.0587 26.132 19.6107 26.132 18.992V17.36C26.132 16.7413 26.004 16.2933 25.748 16.016C25.492 15.7173 25.0013 15.568 24.276 15.568H17.62V20.752Z"/></svg>