<svg width="92" height="64" viewBox="0 0 92 64" fill="none" xmlns="http://www.w3.org/2000/svg">
<rect x="27" y="1" width="38" height="38" rx="19" stroke="#F9F9F9" stroke-width="2"/>
<path d="M36.88 30V13.744L36.56 11.152H51.376C52.8053 11.152 53.9467 11.312 54.8 11.632C55.6747 11.9307 56.3253 12.3467 56.752 12.88C57.2 13.392 57.488 14 57.616 14.704C57.7653 15.3867 57.84 16.112 57.84 16.88V19.408C57.84 20.432 57.6693 21.3813 57.328 22.256C57.008 23.1093 56.4 23.8027 55.504 24.336C54.6293 24.848 53.36 25.104 51.696 25.104H49.488C48.144 25.104 46.8853 25.072 45.712 25.008C44.56 24.944 43.696 24.8907 43.12 24.848V30H36.88ZM43.12 20.752H49.744C50.448 20.752 50.9387 20.6133 51.216 20.336C51.4933 20.0587 51.632 19.6107 51.632 18.992V17.36C51.632 16.7413 51.504 16.2933 51.248 16.016C50.992 15.7173 50.5013 15.568 49.776 15.568H43.12V20.752Z" fill="#F9F9F9"/>
<path d="M2.3 58V47.84L2.1 46.22H10.96C11.8133 46.22 12.48 46.3333 12.96 46.56C13.4533 46.7867 13.8133 47.0867 14.04 47.46C14.28 47.82 14.4333 48.2067 14.5 48.62C14.5667 49.0333 14.6 49.4267 14.6 49.8V50.98C14.6 51.2867 14.5533 51.6333 14.46 52.02C14.3667 52.3933 14.1933 52.76 13.94 53.12C13.6867 53.4667 13.32 53.76 12.84 54C12.36 54.2267 11.7333 54.34 10.96 54.34H8.92C8.08 54.34 7.29333 54.32 6.56 54.28C5.84 54.24 5.3 54.2067 4.94 54.18V58H2.3ZM4.94 52.42H10.38C10.98 52.42 11.3933 52.2733 11.62 51.98C11.8467 51.6867 11.96 51.3333 11.96 50.92V49.66C11.96 49.2333 11.8467 48.8733 11.62 48.58C11.3933 48.2867 10.9867 48.14 10.4 48.14H4.94V52.42ZM19.433 58C18.5396 58 17.873 57.82 17.433 57.46C17.0063 57.1 16.793 56.5133 16.793 55.7V51.6C16.793 51.4 16.8063 51.16 16.833 50.88C16.873 50.5867 16.9663 50.3 17.113 50.02C17.273 49.74 17.533 49.5067 17.893 49.32C18.2663 49.1333 18.7796 49.04 19.433 49.04H24.953C25.6196 49.04 26.133 49.1333 26.493 49.32C26.853 49.5067 27.1063 49.74 27.253 50.02C27.413 50.3 27.5063 50.5867 27.533 50.88C27.573 51.16 27.593 51.4 27.593 51.6V55.44C27.593 55.68 27.573 55.9467 27.533 56.24C27.5063 56.5333 27.413 56.8133 27.253 57.08C27.093 57.3467 26.833 57.5667 26.473 57.74C26.113 57.9133 25.6063 58 24.953 58H19.433ZM20.193 56.28H24.193C24.8463 56.28 25.173 56.0133 25.173 55.48V51.56C25.173 51.0267 24.8463 50.76 24.193 50.76H20.193C19.553 50.76 19.233 51.0267 19.233 51.56V55.48C19.233 56.0133 19.553 56.28 20.193 56.28ZM32.0459 58C31.1526 58 30.5193 57.9533 30.1459 57.86C29.7726 57.7667 29.5859 57.6733 29.5859 57.58L30.1859 56.08C30.5726 56.12 31.2793 56.1667 32.3059 56.22C33.3459 56.26 34.6259 56.28 36.1459 56.28H37.1459C37.4793 56.28 37.6859 56.1933 37.7659 56.02C37.8593 55.8333 37.9059 55.5867 37.9059 55.28C37.9059 54.9733 37.8526 54.7267 37.7459 54.54C37.6526 54.3533 37.4526 54.26 37.1459 54.26H32.2259C31.2926 54.26 30.6193 54.0867 30.2059 53.74C29.7926 53.38 29.5859 52.8467 29.5859 52.14V51.34C29.5859 51.1533 29.6059 50.9333 29.6459 50.68C29.6859 50.4267 29.7859 50.1733 29.9459 49.92C30.1059 49.6667 30.3659 49.46 30.7259 49.3C31.0859 49.1267 31.5859 49.04 32.2259 49.04H37.7459C38.5459 49.04 39.1126 49.0867 39.4459 49.18C39.7793 49.2733 39.9459 49.3667 39.9459 49.46L39.7459 50.96C39.3593 50.92 38.6459 50.88 37.6059 50.84C36.5659 50.7867 35.2926 50.76 33.7859 50.76H32.7859C32.4526 50.76 32.2393 50.8533 32.1459 51.04C32.0659 51.2133 32.0259 51.42 32.0259 51.66C32.0259 51.9133 32.0659 52.1267 32.1459 52.3C32.2393 52.46 32.4526 52.54 32.7859 52.54H37.7059C38.6126 52.54 39.2793 52.7267 39.7059 53.1C40.1326 53.4733 40.3459 53.9467 40.3459 54.52V55.7C40.3459 55.94 40.3259 56.1933 40.2859 56.46C40.2593 56.7267 40.1659 56.98 40.0059 57.22C39.8459 57.4467 39.5859 57.6333 39.2259 57.78C38.8659 57.9267 38.3593 58 37.7059 58H32.0459ZM46.0198 58C45.0065 58 44.3132 57.7867 43.9398 57.36C43.5665 56.9333 43.3798 56.2933 43.3798 55.44V50.76H41.7398V49.04H42.5798C42.8332 49.04 43.0132 49 43.1198 48.92C43.2398 48.84 43.3265 48.68 43.3798 48.44L43.7798 46.3H45.8198V49.04H49.9798V50.76H45.8198V55.46C45.8198 55.7933 45.8998 56.0133 46.0598 56.12C46.2198 56.2267 46.4598 56.28 46.7798 56.28H49.5998L49.7998 57.8C49.5198 57.84 49.0932 57.8867 48.5198 57.94C47.9465 57.98 47.3198 58 46.6398 58H46.0198ZM54.0228 58C53.3561 58 52.8428 57.9133 52.4828 57.74C52.1228 57.5667 51.8628 57.3467 51.7028 57.08C51.5561 56.8133 51.4628 56.5333 51.4228 56.24C51.3961 55.9467 51.3828 55.68 51.3828 55.44V51.6C51.3828 51.4 51.3961 51.16 51.4228 50.88C51.4628 50.5867 51.5561 50.3 51.7028 50.02C51.8628 49.74 52.1228 49.5067 52.4828 49.32C52.8561 49.1333 53.3695 49.04 54.0228 49.04H58.3228C59.2028 49.04 59.8895 49.1267 60.3828 49.3C60.8895 49.46 61.2428 49.7267 61.4428 50.1C61.6561 50.4733 61.7628 50.9733 61.7628 51.6V54.56H58.2628C57.0628 54.56 56.0828 54.5333 55.3228 54.48C54.5761 54.4267 54.0761 54.3933 53.8228 54.38V55.48C53.8095 56.0133 54.1295 56.28 54.7828 56.28H55.8028C56.5228 56.28 57.2228 56.2733 57.9028 56.26C58.5961 56.2333 59.2295 56.2067 59.8028 56.18C60.3761 56.14 60.8361 56.1067 61.1828 56.08L61.9828 57.38C61.9828 57.7933 60.6695 58 58.0428 58H54.0228ZM53.8228 52.84H59.3228V51.56C59.3228 51.2933 59.2895 51.1067 59.2228 51C59.1695 50.8933 58.9961 50.8267 58.7028 50.8C58.4095 50.7733 57.9095 50.76 57.2028 50.76H54.7828C54.1428 50.76 53.8228 51.0267 53.8228 51.56V52.84ZM63.9852 58V49.04H65.6252L66.3852 49.44C66.7318 49.2533 67.1052 49.1067 67.5052 49C67.9052 48.8933 68.4118 48.84 69.0252 48.84C69.9985 48.84 70.7852 48.9467 71.3852 49.16C71.9985 49.3733 72.4052 49.5333 72.6052 49.64L71.9052 51.38C71.7452 51.3 71.4785 51.2 71.1052 51.08C70.7452 50.9467 70.3185 50.8267 69.8252 50.72C69.3318 50.6133 68.7918 50.56 68.2052 50.56H67.9852C67.3452 50.56 66.9252 50.6867 66.7252 50.94C66.5385 51.1933 66.4385 51.6133 66.4252 52.2V58H63.9852ZM75.4247 47.78C74.9314 47.78 74.5714 47.68 74.3447 47.48C74.118 47.28 74.0047 46.9467 74.0047 46.48C74.0047 46 74.1114 45.6667 74.3247 45.48C74.5514 45.28 74.918 45.18 75.4247 45.18C75.9314 45.18 76.298 45.28 76.5247 45.48C76.7514 45.6667 76.8647 46 76.8647 46.48C76.8647 46.9333 76.7514 47.2667 76.5247 47.48C76.298 47.68 75.9314 47.78 75.4247 47.78ZM74.2047 58V49.04H76.6447V58H74.2047ZM81.8386 58C80.8253 58 80.0919 57.7667 79.6386 57.3C79.1853 56.82 78.9586 56.1667 78.9586 55.34C78.9586 54.4733 79.1919 53.8067 79.6586 53.34C80.1386 52.8733 80.8653 52.64 81.8386 52.64H82.8586C83.8586 52.64 84.7586 52.6667 85.5586 52.72C86.3586 52.7733 87.0186 52.8267 87.5386 52.88V51.56C87.5386 51.44 87.5253 51.32 87.4986 51.2C87.4719 51.0667 87.3919 50.96 87.2586 50.88C87.1253 50.8 86.8986 50.76 86.5786 50.76H85.5786C84.1253 50.76 82.9119 50.7867 81.9386 50.84C80.9653 50.88 80.3053 50.92 79.9586 50.96L79.7386 49.44C79.7386 49.2533 80.2453 49.14 81.2586 49.1C82.2719 49.06 83.9653 49.04 86.3386 49.04H87.3386C88.0053 49.04 88.5186 49.1333 88.8786 49.32C89.2386 49.5067 89.4919 49.74 89.6386 50.02C89.7986 50.3 89.8919 50.5867 89.9186 50.88C89.9586 51.16 89.9786 51.4 89.9786 51.6V58H88.3386L87.5586 57.6C86.9986 57.6933 86.3253 57.7867 85.5386 57.88C84.7519 57.96 83.8519 58 82.8386 58H81.8386ZM82.3586 56.28H86.9386C87.2319 56.28 87.4053 56.2533 87.4586 56.2C87.5119 56.1467 87.5386 55.98 87.5386 55.7V54.16H82.3586C81.9986 54.16 81.7453 54.2467 81.5986 54.42C81.4653 54.5933 81.3986 54.8667 81.3986 55.24C81.3986 55.6133 81.4786 55.88 81.6386 56.04C81.7986 56.2 82.0386 56.28 82.3586 56.28Z" fill="#F9F9F9"/>
</svg>
